<?xml version="1.0" standalone="no"?><!DOCTYPE svg PUBLIC "-//W3C//DTD SVG 1.1//EN" "http://www.w3.org/Graphics/SVG/1.1/DTD/svg11.dtd"><svg t="1703777373480" class="icon" viewBox="0 0 1024 1024" version="1.1" xmlns="http://www.w3.org/2000/svg" p-id="6094" xmlns:xlink="http://www.w3.org/1999/xlink" width="24" height="24"><path d="M715.306667 783.829333c7.466667-6.101333 14.677333-12.501333 21.546666-19.2 65.493333-63.829333 101.546667-151.296 101.546667-246.272 0-9.856-0.341333-19.626667-1.066667-29.312a165.546667 165.546667 0 0 1 62.165334 129.322667c0 97.578667-70.101333 159.872-184.234667 165.461333z m-362.581334 0.426667c-75.264 0-135.936-18.218667-175.36-52.693333-34.645333-30.208-52.906667-73.173333-52.906666-124.245334 0-54.016 19.114667-100.864 53.888-132.010666a144.213333 144.213333 0 0 1 97.194666-36.821334c5.76 0 11.562667 0.298667 17.408 0.938667 43.136 4.778667 76.672 25.258667 92.032 56.192 11.264 22.741333 10.666667 47.573333-1.706666 68.096-9.557333 15.957333-22.613333 25.813333-38.784 29.269333-18.645333 4.010667-41.301333-0.810667-57.728-12.245333l-40.96 70.912a158.378667 158.378667 0 0 0 115.797333 21.333333c38.613333-8.277333 70.4-31.488 91.776-67.157333 26.624-44.288 28.416-98.986667 4.906667-146.474667C433.152 408.704 384.682667 373.76 323.413333 361.386667a175.36 175.36 0 0 1 41.941334-57.429334c36.565333-33.237333 87.893333-51.541333 144.597333-51.541333 67.541333 0 129.92 27.221333 175.616 76.714667 45.866667 49.664 71.125333 116.864 71.125333 189.184 0 72.704-27.306667 139.392-76.885333 187.648-52.522667 51.2-124.928 78.293333-209.28 78.293333h-117.76z m461.184-400.128C765.226667 257.664 648.917333 170.666667 509.866667 170.666667c-77.098667 0-148.010667 25.856-199.68 72.832a259.712 259.712 0 0 0-73.344 116.309333 224.213333 224.213333 0 0 0-113.109334 54.613333C71.509333 461.226667 42.666667 529.706667 42.666667 607.274667c0 75.392 27.989333 139.648 80.853333 185.898666 54.613333 47.658667 133.802667 72.917333 229.205333 72.917334h345.6c169.301333 0 283.008-99.541333 283.008-247.722667a248.064 248.064 0 0 0-167.424-234.24z" fill="#2B94FE" p-id="6095"></path></svg>