<?xml version="1.0" standalone="no"?><!DOCTYPE svg PUBLIC "-//W3C//DTD SVG 1.1//EN" "http://www.w3.org/Graphics/SVG/1.1/DTD/svg11.dtd"><svg t="1703777400765" class="icon" viewBox="0 0 1024 1024" version="1.1" xmlns="http://www.w3.org/2000/svg" p-id="7090" xmlns:xlink="http://www.w3.org/1999/xlink" width="24" height="24"><path d="M245.959111 421.376a250.709333 250.709333 0 0 1-4.096-44.942222 268.430222 268.430222 0 0 1 536.888889 0c1.024 14.961778 1.024 29.980444 0 44.942222a246.613333 246.613333 0 1 1-177.806222 419.043556 61.326222 61.326222 0 0 1 0-86.556445 62.008889 62.008889 0 0 1 87.210666 0 124.017778 124.017778 0 1 0 4.750223-182.613333l-6.826667 7.509333-4.750222 4.096-256.853334 256.853333a246.641778 246.641778 0 1 1-178.517333-418.332444z m0 370.631111a124.672 124.672 0 1 0-86.812444-36.494222 124.672 124.672 0 0 0 88.177777 36.522667h-1.365333z m262.997333-272.497778a145.123556 145.123556 0 1 0-143.758222-143.075555 145.806222 145.806222 0 0 0 145.123556 145.095111l-1.365334-2.048z" fill="#06A7FF" p-id="7091"></path><path d="M655.445333 392.078222a28.017778 28.017778 0 0 1 0-7.480889 62.008889 62.008889 0 1 1 124.017778 0c0.312889 2.702222 0.312889 5.461333 0 8.163556a268.458667 268.458667 0 0 1-535.552 0v-8.163556a62.008889 62.008889 0 0 1 124.017778 0v7.480889a145.806222 145.806222 0 0 0 289.564444 0h-2.048z" fill="#FF436A" p-id="7092"></path></svg>